<?xml version="1.0" encoding="UTF-8"?>
<svg id="Layer_1" xmlns="http://www.w3.org/2000/svg" version="1.1" viewBox="0 0 183.05 190.93">
  <!-- Generator: Adobe Illustrator 29.4.0, SVG Export Plug-In . SVG Version: 2.1.0 Build 152)  -->
  <defs>
    <style>
      .st0 {
        fill: #21201f;
      }

      .st1 {
        fill: none;
        stroke: #000;
        stroke-linecap: round;
        stroke-linejoin: round;
        stroke-width: 2.79px;
      }

      .st2 {
        fill: #fff;
      }

      .st3 {
        fill: #ffe4d9;
      }

      .st4 {
        fill: #453d37;
      }
    </style>
  </defs>
  <path class="st2" d="M179.96,114.52c4.66-16.57,6.09-43.66-4.87-67.35-9.51-20.59-26.19-34.8-49.58-42.23C116.22,1.98,106.93.49,97.87.49c-31.09,0-51.41,17.29-59.39,25.62-6.77,2.04-18.34,7.2-27.19,19.85C-.44,62.74-3.04,86.39,3.54,116.25c-3.44,14.58,3.07,28.09,17.18,35.59.48.76,1.04,1.47,1.65,2.14,3.63,9.16,9.7,17.03,17.58,22.79,12.82,9.34,30.22,14.1,51.72,14.15.1,0,.2.01.3.01,21.62,0,39.13-4.76,52.04-14.15,7.91-5.77,13.99-13.66,17.61-22.85.59-.64,1.12-1.33,1.59-2.07,14.17-7.5,20.69-21.35,17.04-36.27-.08-.35-.18-.71-.28-1.07Z"/>
  <path class="st2" d="M165.09,114.99c4.05-10.45,8.4-37.95-2.7-61.95-7.8-16.88-21.64-28.57-41.11-34.76C76.26,3.97,49.49,34.44,46.04,38.68c-2.83.46-14.71,3.09-23.25,15.3-9.84,14.07-11.43,35.2-4.74,62.78-.27.65-.51,1.35-.72,2.1-2.31,8.71,1.48,16.3,10.45,20.87,1.06.49,3.94,2.2,4.58,4.23.19.6.75.99,1.36.99.11,0,.23-.02.35-.05,2.25,8.12,7.1,15.42,14.12,20.55,8.75,6.37,22.43,11.46,43.81,11.46s35.04-5.1,43.79-11.46c7.03-5.13,11.89-12.43,14.12-20.55.12.03.23.05.35.05.53,0,1.04-.3,1.28-.8.02-.04.05-.11.07-.16,0-.02.01-.04.02-.07,0-.01.02-.02.02-.04.71-2,3.53-3.68,4.56-4.16.01,0,.03-.02.05-.02,8.88-4.53,12.58-11.92,10.4-20.82-.39-1.6-.94-2.87-1.55-3.9h-.02Z"/>
  <g>
    <g>
      <g>
        <path class="st3" d="M145.47,90.52c-26.32-1.23-34.23-10.21-42.34-24.43-1.8-3.17-3.39-5.85-4.88-8.09-29.45.87-51.38,21.18-60.66,31.53.75,9.14,2.24,17.59-5,26.34.06.24.1.52.1.79v17.98c0,3.01.34,5.99,1.01,8.9,2.06,8.67,7.06,16.5,14.48,21.91,8.75,6.37,22.43,11.46,43.81,11.46s35.04-5.1,43.79-11.46c7.42-5.41,12.43-13.25,14.48-21.91.02-.04.02-.1.04-.14.65-2.84,1.01-5.79,1.01-8.76v-17.98c0-.34.04-.67.12-.97-1.55-17.75-5.95-25.16-5.95-25.16h-.01ZM112.47,138.47c-2,3.67-7.2,7.91-20.27,8.17-.16.02-.3.02-.46,0-13.07-.26-18.26-4.5-20.27-8.17-1.35-2.52.48-5.55,3.39-5.55h34.25c2.88,0,4.7,3.03,3.35,5.55h.01Z"/>
        <g>
          <path class="st3" d="M33.71,143.54c-.97-3.1-5.35-5.1-5.35-5.1-9.37-4.77-11.54-12.14-9.67-19.21,2.2-8.22,8.05-7.47,11.44-6.22,1.27.47,2.2,1.55,2.45,2.85.08.25.1.52.1.8v17.98c0,3.02.35,6,1.02,8.89h0Z"/>
          <path d="M33.71,144.96c-.61,0-1.17-.39-1.36-1-.64-2.03-3.53-3.74-4.58-4.23-8.97-4.56-12.76-12.16-10.45-20.87.94-3.51,2.61-5.91,4.98-7.14,2.9-1.51,6.13-.86,8.33-.05,1.76.66,3.01,2.12,3.35,3.92.07.21.13.61.13,1.07v17.98c0,2.87.33,5.76.99,8.57.17.74-.27,1.49-1.01,1.69-.13.03-.25.05-.38.05h0ZM26.21,113.66c-.88,0-1.78.16-2.6.59-1.62.84-2.81,2.64-3.54,5.35-1.96,7.4,1.22,13.65,8.94,17.58.21.09,1.27.6,2.46,1.46-.13-1.33-.2-2.66-.2-3.99v-18c0-.23-.02-.34-.04-.38-.19-.96-.77-1.63-1.59-1.93-.97-.36-2.19-.68-3.44-.68h0Z"/>
        </g>
        <g>
          <path class="st3" d="M112.47,138.47c-2,3.67-7.2,7.91-20.27,8.17-.16.02-.3.02-.46,0-13.07-.26-18.26-4.5-20.27-8.17-1.35-2.52.48-5.55,3.39-5.55h34.25c2.88,0,4.7,3.03,3.35,5.55h.01Z"/>
          <path class="st0" d="M113.6,134.02c-.95-1.57-2.63-2.52-4.49-2.52h-34.24c-1.87,0-3.58.95-4.53,2.54-.95,1.57-.98,3.48-.11,5.11,2.14,3.9,7.59,8.64,21.34,8.9.15.02.3.02.42.02.09,0,.19,0,.25-.02,13.88-.26,19.34-5,21.48-8.9v-.02c.87-1.63.83-3.52-.11-5.11h-.01ZM111.22,137.79c-1.78,3.26-6.51,7.18-19.03,7.42h-.4c-12.54-.25-17.27-4.17-19.05-7.4-.4-.76-.38-1.59.06-2.31.44-.74,1.19-1.15,2.08-1.15h34.24c.85,0,1.63.42,2.05,1.14.44.74.45,1.57.06,2.31h0Z"/>
          <path class="st2" d="M111.22,137.79c-1.78,3.26-6.51,7.18-19.03,7.42h-.4c-12.54-.25-17.27-4.17-19.05-7.4-.4-.76-.38-1.59.06-2.31.44-.74,1.19-1.15,2.08-1.15h34.24c.85,0,1.63.42,2.05,1.14.44.74.45,1.57.06,2.31h0Z"/>
        </g>
        <path class="st0" d="M93.06,148.08c-.32,0-.66,0-.97-.03-.78-.07-1.36-.76-1.29-1.54s.78-1.36,1.54-1.29c.23.02.48.02.73.02.78,0,1.42.64,1.42,1.42s-.64,1.42-1.42,1.42h-.01Z"/>
        <g>
          <path class="st3" d="M155.6,138.44s-4.22,1.95-5.3,4.97c.65-2.85,1-5.8,1-8.77v-17.99c0-.32.05-.67.12-.97.3-1.2,1.75-2.35,2.42-2.67,3.26-1.57,9.44-1.85,11.42,6.22,1.74,7.11-.3,14.44-9.67,19.21h0Z"/>
          <path d="M150.3,144.83c-.13,0-.26-.02-.4-.06-.72-.21-1.16-.95-.99-1.68.64-2.8.96-5.65.96-8.45v-17.99c0-.42.06-.89.17-1.32.45-1.78,2.34-3.2,3.19-3.61,1-.48,4.54-1.92,8.14-.22,1.79.85,4.16,2.82,5.28,7.38,2.18,8.9-1.52,16.29-10.4,20.82-.02,0-.03.02-.05.02-1.03.48-3.84,2.15-4.56,4.16-.21.58-.75.95-1.34.95h0ZM157.68,113.55c-1.2,0-2.35.32-3.22.74-.48.23-1.5,1.12-1.66,1.74-.05.21-.08.44-.08.63v17.98c0,1.32-.07,2.66-.2,3.99,1.15-.84,2.18-1.34,2.46-1.47,9.71-4.95,10.21-12.3,8.91-17.6-.68-2.79-1.94-4.64-3.73-5.49-.8-.38-1.64-.53-2.47-.53h0ZM155.6,138.44h.02-.02Z"/>
        </g>
        <path class="st0" d="M150.25,144.96c-.21,0-.42-.04-.61-.14-.71-.34-1-1.19-.66-1.9.36-.7,1.25-1.05,1.95-.69.67.35.98,1.08.68,1.76-.02.06-.05.13-.07.16-.24.51-.75.8-1.28.8h-.01Z"/>
        <path class="st0" d="M90.91,148.08c-.78,0-1.42-.64-1.42-1.42s.68-1.43,1.53-1.42c.2,0,.41,0,.61-.02.78-.06,1.47.51,1.54,1.29s-.51,1.47-1.29,1.54c-.31.03-.66.03-.97.03h0Z"/>
        <path d="M32.68,125.04c-.22,0-.45-.05-.67-.17h0s-3.42-1.78-6.75-.99c-.76.18-1.53-.29-1.71-1.05s.29-1.53,1.05-1.71c4.39-1.04,8.56,1.16,8.74,1.25.69.37.95,1.23.58,1.92-.26.48-.75.75-1.25.75h.01Z"/>
        <path d="M151.29,125.03c-.51,0-1-.27-1.26-.75-.37-.69-.11-1.55.58-1.92.17-.09,4.35-2.29,8.74-1.25.76.18,1.24.95,1.05,1.71-.18.76-.94,1.23-1.71,1.05-3.32-.78-6.71.97-6.75.99-.21.11-.44.16-.66.16h.01Z"/>
        <path class="st0" d="M152.25,92.09c-2.4,0-4.7-.05-6.84-.15-.78-.04-1.39-.7-1.35-1.49.04-.79.77-1.4,1.49-1.35,2.09.1,4.35.15,6.71.15.78,0,1.42.64,1.42,1.42s-.64,1.42-1.42,1.42h0Z"/>
        <g>
          <path class="st4" d="M163.49,115.19c-2.89-4.55-8.81-2.74-9.65-2.18-1.07.72-2.12,1.47-2.42,2.68-1.55-17.75-5.95-25.16-5.95-25.16-26.32-1.23-34.23-10.21-42.34-24.43-1.8-3.17-3.39-5.85-4.88-8.09-5.71-8.63-10.01-10.79-20.84-9.86-13.64,1.17-16.5,13.84-16.5,13.84-.46-.2-18.88-5.08-22.88,13.84-1.01,4.8-.81,9.34-.44,13.7.75,9.14,2.24,17.59-5,26.34-.26-1.31-1.19-2.38-2.46-2.86-3.39-1.25-8.5-1.68-10.61,3.88C1.89,44.97,46.79,40,46.79,40c0,0,26.37-35.52,74.05-20.37,57.7,18.34,48.75,80.98,42.64,95.55h.01Z"/>
          <path d="M19.53,118.31h-.09c-.62-.04-1.14-.48-1.29-1.08-6.82-27.82-5.26-49.1,4.63-63.25,8.54-12.21,20.42-14.84,23.25-15.3,3.45-4.24,30.22-34.7,75.24-20.4,19.48,6.19,33.31,17.89,41.11,34.76,11.37,24.59,6.53,52.85,2.41,62.69-.2.49-.66.82-1.19.87-.54.05-1.04-.21-1.32-.65-2.28-3.59-7.1-2.08-7.67-1.75-.92.62-1.65,1.16-1.82,1.83s-.75,1.11-1.49,1.08c-.69-.05-1.24-.6-1.31-1.29-1.25-14.35-4.38-21.78-5.42-23.91-27.15-1.45-34.84-11.34-42.69-25.11-2.03-3.56-3.51-6.03-4.83-8.01-5.49-8.3-9.35-10.1-19.54-9.23-12.41,1.06-15.13,12.27-15.24,12.74-.09.41-.37.76-.74.95-.38.19-.82.2-1.21.04h0s-7.45-2.07-13.59,1.48c-3.73,2.15-6.2,5.97-7.34,11.35-.92,4.36-.82,8.46-.41,13.29l.2,2.27c.77,8.55,1.49,16.63-5.52,25.1-.35.42-.9.6-1.44.47-.53-.14-.94-.56-1.04-1.1-.16-.82-.75-1.49-1.56-1.8-2.5-.92-6.96-1.75-8.78,3.06-.21.55-.74.92-1.33.92l.02-.02ZM97.87,17.33c-32.03,0-49.72,23.23-49.93,23.52-.23.31-.59.52-.98.56-.13.01-13.1,1.63-21.88,14.24-8.98,12.89-10.64,32.25-4.95,57.55,2.4-2.56,6.11-3.15,10.51-1.54.88.33,1.63.86,2.21,1.53,4.83-6.93,4.23-13.62,3.54-21.28l-.2-2.28c-.38-4.39-.59-9.14.46-14.11,1.38-6.52,4.54-11.09,9.38-13.59,5.23-2.7,11.15-2.19,13.94-1.65,1.26-3.51,5.61-12.56,17.33-13.56,11.31-.97,16.06,1.28,22.15,10.49,1.35,2.03,2.87,4.55,4.93,8.17,7.48,13.11,14.81,22.49,41.17,23.72.48.02.91.28,1.15.69.18.29,4.03,6.94,5.81,22.41.19-.14.38-.26.55-.38.86-.58,3.77-1.47,6.6-.88,1.26.26,2.38.78,3.32,1.54,3.59-10.76,6.95-36.38-3.16-58.26-7.45-16.12-20.71-27.31-39.4-33.25-8.15-2.59-15.68-3.66-22.54-3.66v.02Z"/>
        </g>
        <g>
          <path d="M77.28,119.16c-13.82-5.27-25.86-4.21-30.16-3.58-.33.05-.45-.39-.18-.54,15.79-8.28,27.36.59,30.66,3.65.23.22-.03.56-.33.47h.01Z"/>
          <path d="M77.38,120.12c-.13,0-.27-.02-.4-.06-.01,0-.03,0-.04,0-13.51-5.15-25.25-4.18-29.68-3.53-.59.09-1.16-.26-1.35-.83-.19-.58.06-1.2.59-1.48,16.4-8.6,28.45.73,31.75,3.79.43.42.51,1.03.21,1.52-.23.38-.64.6-1.07.6h-.01ZM54.93,114.09c5.07,0,11.71.62,19.02,2.91-4.46-3.03-12.55-6.6-22.85-2.79,1.14-.07,2.43-.12,3.83-.12h0ZM46.98,114.64h0Z"/>
        </g>
        <g>
          <path d="M137.32,115.58c-4.3-.64-16.32-1.69-30.16,3.58-.3.1-.55-.24-.33-.47,3.3-3.06,14.87-11.93,30.66-3.65.3.15.15.59-.17.54h0Z"/>
          <path d="M107.05,120.11c-.44,0-.84-.22-1.07-.6-.29-.48-.22-1.1.19-1.5,3.32-3.08,15.36-12.41,31.76-3.81.53.26.79.88.61,1.46-.18.59-.75.95-1.37.86h0c-4.42-.65-16.16-1.62-29.68,3.53-.15.05-.3.07-.44.07h0ZM124.44,112.56c-6.06,0-10.87,2.34-13.95,4.44,9.32-2.91,17.56-3.13,22.83-2.79-3.19-1.18-6.16-1.65-8.88-1.65h0ZM137.05,115.88s.02.01.03.02c-.01,0-.02-.01-.03-.02ZM137.46,114.64h.02-.02ZM137.45,114.64h0Z"/>
        </g>
      </g>
      <g>
        <path class="st4" d="M100.07,60.85c-33.06-.06-53.51,17.33-62.47,28.67-.38-4.36-.58-8.9.44-13.7,4.01-18.92,22.43-14.04,22.88-13.84,0,0,2.86-12.67,16.5-13.84,10.83-.93,16.79,1.27,22.65,12.71Z"/>
        <path d="M37.59,90.47c-.09,0-.18,0-.27-.04-.37-.11-.64-.44-.67-.82-.38-4.36-.58-9.06.45-13.98,1.35-6.38,4.42-10.84,9.13-13.27,5.55-2.87,11.64-2.01,14.02-1.5,1-3.04,5.11-12.63,17.07-13.66,10.68-.92,17.25.87,23.58,13.22.15.29.14.64-.04.92s-.48.45-.81.45h-.19c-35.36,0-54.81,19.79-61.54,28.31-.18.23-.46.36-.74.36h0ZM55.23,62.22c-2.58,0-5.74.45-8.64,2.09-3.9,2.22-6.47,6.16-7.64,11.71-.78,3.69-.84,7.19-.6,11.08,7.94-9.32,27.14-26.71,60.14-27.19-5.63-10.22-11.38-11.66-21-10.83-12.77,1.09-15.54,12.62-15.66,13.11-.06.28-.24.51-.5.63-.25.13-.55.14-.8.03-.01,0-2.25-.63-5.3-.63h0Z"/>
      </g>
      <path d="M80.8,99.99l-35.08.7c-.68.01-.98-.85-.45-1.27,2.75-2.16,8.86-6.23,15.92-6.34,5.05-.08,9.75-.08,13.19-.06,3.29.02,6.26,1.98,7.62,5.02h0c.4.9-.23,1.93-1.21,1.95h.01Z"/>
      <path d="M103.61,99.99l35.08.7c.68.01.98-.85.45-1.27-2.75-2.16-8.86-6.23-15.92-6.34-5.05-.08-9.75-.08-13.19-.06-3.29.02-6.26,1.98-7.62,5.02h0c-.4.9.23,1.93,1.21,1.95h-.01Z"/>
      <path d="M73.17,135.69c4.29,2.34,9.53,3.28,14.37,4.09-2.57.08-5.16.07-7.76-.12-2.78-.25-5.21-.46-7.96-1.46-.74-.29-1.1-1.11-.82-1.85.32-.86,1.42-1.18,2.16-.65h.01Z"/>
      <path d="M112.13,138.19c-5.15,1.74-10.41,1.66-15.72,1.59,4.86-.82,10.14-1.75,14.43-4.13,1.77-1.05,3.19,1.73,1.29,2.54h0Z"/>
    </g>
    <path class="st1" d="M145.47,90.52c-26.32-1.23-34.23-10.21-42.34-24.43-1.8-3.17-3.39-5.85-4.88-8.09-29.45.87-51.38,21.18-60.66,31.53.75,9.14,2.24,17.59-5,26.34.06.24.1.52.1.79v17.98c0,3.01.34,5.99,1.01,8.9,2.06,8.67,7.06,16.5,14.48,21.91,8.75,6.37,22.43,11.46,43.81,11.46s35.04-5.1,43.79-11.46c7.42-5.41,12.43-13.25,14.48-21.91.02-.04.02-.1.04-.14.65-2.84,1.01-5.79,1.01-8.76v-17.98c0-.34.04-.67.12-.97-1.55-17.75-5.95-25.16-5.95-25.16h-.01ZM112.47,138.47c-.95,1.77-2.66,3.65-5.61,5.18-3.19,1.65-7.85,2.86-14.65,2.99-.16.02-.3.02-.46,0-6.84-.14-11.52-1.37-14.71-3.03-2.92-1.51-4.58-3.37-5.55-5.14-1.35-2.52.48-5.55,3.39-5.55h34.25c2.88,0,4.7,3.03,3.35,5.55h0Z"/>
  </g>
</svg>