<?xml version="1.0" encoding="UTF-8"?>
<svg id="Layer_1" xmlns="http://www.w3.org/2000/svg" version="1.1" viewBox="0 0 62.03 50">
  <!-- Generator: Adobe Illustrator 29.4.0, SVG Export Plug-In . SVG Version: 2.1.0 Build 152)  -->
  <path d="M60.66,37.03l-9.39-9.39c4-5.08,3.66-12.49-1.02-17.17-5.06-5.06-13.28-5.06-18.34,0-5.06,5.06-5.06,13.28,0,18.34,2.53,2.53,5.85,3.79,9.17,3.79,2.83,0,5.66-.93,8-2.77l9.39,9.39c.3.3.7.45,1.1.45s.79-.15,1.1-.45c.61-.6.61-1.59,0-2.19ZM34.1,26.61c-3.85-3.85-3.85-10.11,0-13.96,1.92-1.92,4.45-2.89,6.98-2.89s5.05.96,6.98,2.89c3.85,3.85,3.85,10.11,0,13.96-3.85,3.85-10.11,3.85-13.96,0Z"/>
  <path d="M30.5,30.21c-2.83-2.82-4.38-6.58-4.38-10.58s1.55-7.76,4.38-10.58c.48-.48.99-.93,1.53-1.33l-5.44-5.36c-.86-.84-2.23-.84-3.09,0L1.24,24.29c-.7.68-.21,1.86.76,1.86h3.8c.5,0,.91.41.91.92v20.04c0,.64.51,1.15,1.14,1.15h8.75c.63,0,1.15-.51,1.15-1.15v-6.34c0-4.01,3.09-7.52,7.1-7.63,4.12-.1,7.49,3.2,7.49,7.3v6.67c0,.64.51,1.15,1.14,1.15h8.75c.64,0,1.15-.51,1.15-1.15v-12.7c-.76.12-1.53.18-2.3.18-4,0-7.76-1.55-10.58-4.38Z"/>
</svg>