<?xml version="1.0" encoding="UTF-8"?>
<svg id="Layer_1" xmlns="http://www.w3.org/2000/svg" version="1.1" viewBox="0 0 42.73 43.41">
  <!-- Generator: Adobe Illustrator 29.4.0, SVG Export Plug-In . SVG Version: 2.1.0 Build 152)  -->
  <path d="M38.87,36.82l-10.24-10.24c4.36-5.54,3.99-13.61-1.12-18.73-5.52-5.52-14.48-5.52-20,0-5.52,5.51-5.52,14.48,0,20,2.75,2.75,6.38,4.14,10,4.14,3.09,0,6.18-1.01,8.73-3.02l10.24,10.24c.33.33.76.5,1.2.5s.87-.17,1.2-.5c.66-.66.66-1.73,0-2.39h0ZM9.9,25.45c-4.2-4.2-4.2-11.03,0-15.22,2.1-2.1,4.85-3.15,7.61-3.15s5.51,1.05,7.61,3.15c4.2,4.2,4.2,11.03,0,15.22-4.2,4.2-11.03,4.2-15.22,0h0Z"/>
</svg>