<?xml version="1.0" encoding="UTF-8"?>
<svg id="Layer_1" xmlns="http://www.w3.org/2000/svg" version="1.1" viewBox="0 0 42.73 43.41">
  <!-- Generator: Adobe Illustrator 29.4.0, SVG Export Plug-In . SVG Version: 2.1.0 Build 152)  -->
  <path d="M42.14,39.3l-12.16-12.16c5.17-6.58,4.74-16.16-1.33-22.23C22.1-1.64,11.46-1.64,4.91,4.91c-6.55,6.54-6.55,17.19,0,23.74,3.27,3.27,7.57,4.91,11.87,4.91,3.67,0,7.33-1.2,10.36-3.58l12.16,12.16c.39.39.9.59,1.42.59s1.03-.2,1.42-.59c.78-.78.78-2.05,0-2.84h0ZM7.75,25.81c-4.98-4.98-4.98-13.09,0-18.07,2.49-2.49,5.76-3.74,9.03-3.74s6.54,1.25,9.03,3.74c4.98,4.98,4.98,13.09,0,18.07s-13.09,4.98-18.07,0h0Z"/>
</svg>