<?xml version="1.0" encoding="UTF-8"?>
<svg id="Layer_1" xmlns="http://www.w3.org/2000/svg" version="1.1" viewBox="0 0 76 60">
  <!-- Generator: Adobe Illustrator 29.4.0, SVG Export Plug-In . SVG Version: 2.1.0 Build 152)  -->
  <defs>
    <style>
      .st0 {
        opacity: .3;
      }
    </style>
  </defs>
  <g>
    <path d="M74.96,45l-11.71-11.71c4.98-6.34,4.56-15.57-1.28-21.4-6.3-6.3-16.56-6.3-22.86,0-6.3,6.3-6.3,16.56,0,22.86,3.15,3.15,7.29,4.73,11.43,4.73,3.53,0,7.06-1.16,9.97-3.45l11.71,11.71c.38.38.87.57,1.37.57s.99-.19,1.37-.57c.75-.75.75-1.98,0-2.73ZM41.85,32.01c-4.8-4.8-4.8-12.6,0-17.4,2.4-2.4,5.55-3.6,8.7-3.6s6.3,1.2,8.7,3.6c4.8,4.8,4.8,12.6,0,17.4-4.8,4.8-12.6,4.8-17.4,0Z"/>
    <path d="M37.36,36.5c-3.53-3.52-5.46-8.2-5.46-13.19s1.93-9.67,5.46-13.19c.6-.6,1.23-1.16,1.91-1.66l-6.78-6.68c-1.07-1.05-2.78-1.05-3.85,0L.89,29.12c-.87.85-.26,2.32.95,2.32h4.74c.62,0,1.13.51,1.13,1.15v24.98c0,.8.64,1.43,1.42,1.43h10.91c.79,0,1.43-.64,1.43-1.43v-7.9c0-5,3.85-9.37,8.85-9.51,5.14-.12,9.34,3.99,9.34,9.1v8.31c0,.8.64,1.43,1.42,1.43h10.91c.8,0,1.43-.64,1.43-1.43v-15.83c-.95.15-1.91.22-2.87.22-4.99,0-9.67-1.93-13.19-5.46Z"/>
  </g>
  <g>
    <path d="M74.96,45l-11.7-11.7c4.97-6.34,4.56-15.57-1.28-21.4-5.68-5.7-14.61-6.25-20.93-1.66-.67.5-1.32,1.05-1.93,1.66-6.29,6.29-6.29,16.55,0,22.85,3.15,3.15,7.29,4.74,11.43,4.74.96,0,1.92-.09,2.87-.25,2.54-.46,4.99-1.53,7.12-3.2l11.7,11.7c.37.37.87.56,1.36.56s1-.19,1.37-.56c.75-.75.75-1.98,0-2.73ZM60.6,30.4c-.22.31-.46.61-.7.9-.21.25-.44.49-.66.71-1.66,1.66-3.69,2.75-5.83,3.27-4.03.96-8.44-.14-11.57-3.27-4.79-4.79-4.79-12.6,0-17.39.62-.62,1.3-1.17,2.01-1.63,2.03-1.31,4.36-1.97,6.69-1.97,3.15,0,6.31,1.2,8.7,3.6,4.29,4.29,4.75,10.99,1.36,15.78Z"/>
    <path d="M37.36,36.5c-3.53-3.52-5.46-8.2-5.46-13.19s1.93-9.67,5.46-13.19c.6-.6,1.23-1.16,1.91-1.66l-6.78-6.68c-1.07-1.05-2.78-1.05-3.85,0L.89,29.12c-.87.85-.26,2.32.95,2.32h4.74c.62,0,1.13.51,1.13,1.15v24.98c0,.8.64,1.43,1.42,1.43h10.91c.79,0,1.43-.64,1.43-1.43v-7.9c0-5,3.85-9.37,8.85-9.51,5.14-.12,9.34,3.99,9.34,9.1v8.31c0,.8.64,1.43,1.42,1.43h10.91c.8,0,1.43-.64,1.43-1.43v-15.83c-.95.15-1.91.22-2.87.22-4.99,0-9.67-1.93-13.19-5.46Z"/>
  </g>
  <path class="st0" d="M60.6,30.4c-.22.31-.46.61-.7.9-.19.1-.39.15-.62.15h-4.74c-.62,0-1.13.51-1.13,1.13v2.69c-4.03.96-8.44-.14-11.57-3.27-4.79-4.79-4.79-12.6,0-17.39.62-.62,1.3-1.17,2.01-1.63l16.38,16.14c.37.36.47.85.37,1.27Z"/>
  <path d="M60.6,30.4c-.09.37-.34.71-.7.9.24-.29.47-.59.7-.9Z"/>
</svg>